<svg id="Design" xmlns="http://www.w3.org/2000/svg" viewBox="0 0 85.04 85"><defs><style>.cls-1{fill:#e5c89e;}.cls-2{fill:#fff;}.cls-3{fill:#fafafa;}</style></defs><title>Building-Spec-ُSmall</title><g id="Building-Document"><path class="cls-1" d="M70.21,21V75.5a5.14,5.14,0,0,1-5.14,5.14H19.39a5.14,5.14,0,0,1-5.14-5.14V14.39a5.07,5.07,0,0,1,5.07-5.07H65.11a5.1,5.1,0,0,1,5.1,5.1Z"/><path id="Path_47" data-name="Path 47" class="cls-2" d="M30,43.9V35.48c0-1.13,0-2.27,0-3.4v-.54c0-1.15.44-1.51,1.59-1.55h21a5.62,5.62,0,0,1,.68,0,1.3,1.3,0,0,1,1.31,1.44c0,4.08,0,8.16,0,12.24a2.27,2.27,0,0,1-.05.33H53.09v2.05L42.27,40l-2,1.2L48.8,46v2.05c-3.55-2-7-3.93-10.57-5.89l-2.3,1.31,8.8,4.84v2c-1.82-1-3.56-2-5.33-3l-5.28-3-2.46,1.43V43.9ZM52.48,32H32.94a1.37,1.37,0,0,0-.41,0,4.85,4.85,0,0,0-.53.18V43.37c.88-.24,1.56-.8,2.37-1.1l1.28.67v-1.4l2.72-1.65c.47.26.88.47,1.39.76V39.09l2.5-1.43,3.45,2c1.14.65,2.27,1.32,3.41,2s2.23,1.36,3.45,1.92a2.08,2.08,0,0,0,.07-.41c0-3.47,0-6.94,0-10.39A2.34,2.34,0,0,0,52.48,32Z"/><path class="cls-3" d="M24.78,57.24l0-.07a.22.22,0,0,1,0-.07.36.36,0,0,1,0-.13.88.88,0,0,1,.07-.14l.09-.12a.12.12,0,0,1,.08,0s.08,0,.12.09a2.69,2.69,0,0,1,.26.59,2,2,0,0,1,.08.57,1.28,1.28,0,0,1,0,.18,1.7,1.7,0,0,1,0,.19,1.77,1.77,0,0,1-.06.19,1.11,1.11,0,0,1-.08.16,1.41,1.41,0,0,1-.23.23,1.47,1.47,0,0,1-.29.18,1.65,1.65,0,0,1-.35.12,1.74,1.74,0,0,1-.39,0,1.25,1.25,0,0,1-.47-.08.89.89,0,0,1-.32-.22.85.85,0,0,1-.18-.32,1.23,1.23,0,0,1-.06-.38,1.51,1.51,0,0,1,.07-.44,2.8,2.8,0,0,1,.18-.45l0-.05,0,0h.24a0,0,0,0,1,0,0,.23.23,0,0,1,0,.08l-.06.14a1.51,1.51,0,0,0-.06.19.93.93,0,0,0,0,.23.6.6,0,0,0,.18.47.74.74,0,0,0,.52.17l.27,0a1.39,1.39,0,0,0,.28-.09,1.19,1.19,0,0,0,.25-.15.75.75,0,0,0,.19-.21,1.08,1.08,0,0,0,0-.19,2,2,0,0,0-.07-.22c0-.07-.06-.15-.09-.22A1.33,1.33,0,0,0,24.78,57.24Zm-.92-1.16A.62.62,0,0,1,24,56a.18.18,0,0,1,.12-.05l.09,0,.14.08a.71.71,0,0,1,.13.12.2.2,0,0,1,0,.13.26.26,0,0,1,0,.09l-.07.13a.66.66,0,0,1-.11.14.18.18,0,0,1-.12.05l-.09,0-.14-.08a.56.56,0,0,1-.13-.13.22.22,0,0,1,0-.12.29.29,0,0,1,0-.1A.62.62,0,0,1,23.86,56.08Z"/><path class="cls-3" d="M26.73,58.63a.7.7,0,0,1-.54-.21,1.06,1.06,0,0,1-.22-.65c0-.15,0-.3,0-.47s0-.33,0-.49,0-.32,0-.47,0-.28-.06-.4a.22.22,0,0,1,0-.12l.12-.15.12-.12a.13.13,0,0,1,.08,0,.05.05,0,0,1,.05,0c0,.09,0,.18,0,.26s0,.17,0,.26l.08,1.44a1.09,1.09,0,0,0,0,.21.43.43,0,0,0,.07.15.32.32,0,0,0,.13.1.5.5,0,0,0,.2,0Z"/><path class="cls-3" d="M29,58.63a.65.65,0,0,1-.26,0,.63.63,0,0,1-.21-.17l0,.11-.07.11-.09.09a.2.2,0,0,1-.11,0,.69.69,0,0,1-.22,0l-.24-.11-.24-.15-.21-.18a.63.63,0,0,1-.26.28.74.74,0,0,1-.34.08l-.07,0-.07,0a.21.21,0,0,1-.05-.07.25.25,0,0,1,0-.1v-.21a.17.17,0,0,1,0-.09A.16.16,0,0,1,26.6,58l.08,0h.1a.52.52,0,0,0,.26-.06.46.46,0,0,0,.17-.18l.07-.12.07-.13a1.28,1.28,0,0,1,.12-.21,1,1,0,0,1,.14-.17.61.61,0,0,1,.16-.11.43.43,0,0,1,.18,0,.33.33,0,0,1,.19.05.56.56,0,0,1,.14.14l.14.23c0,.09.11.19.19.3l.09.13a.39.39,0,0,0,.09.09l.13.06.19,0Zm-.83-.5,0,0a.06.06,0,0,0,0,0,1.26,1.26,0,0,0-.13-.36.8.8,0,0,0-.11-.16.28.28,0,0,0-.13-.09l-.08,0-.08,0-.07.08a.42.42,0,0,0,0,.12.68.68,0,0,0,.14.14l.18.12.18.09Z"/><path class="cls-3" d="M30.6,58.63l-.28,0a.65.65,0,0,1-.21-.08.52.52,0,0,1-.16-.14.77.77,0,0,1-.11-.21h0l-.14.19a.74.74,0,0,1-.15.15.8.8,0,0,1-.23.09l-.26,0-.07,0-.07,0a.21.21,0,0,1-.05-.07.25.25,0,0,1,0-.1v-.21a.17.17,0,0,1,0-.09.16.16,0,0,1,.06-.06L29,58h.1a.68.68,0,0,0,.2,0l.16-.07a.32.32,0,0,0,.1-.1l.09-.16a1.6,1.6,0,0,0,.07-.19,2.06,2.06,0,0,0,.05-.21l0,0,0,0,.08,0H30c.05,0,.08,0,.08.06s0,0,0,.07l0,.12,0,.14,0,.14a.28.28,0,0,0,.17.24,1.08,1.08,0,0,0,.43.07ZM29.11,56.3a.5.5,0,0,1,.09-.12.15.15,0,0,1,.1,0l.07,0,.12.07.11.11a.19.19,0,0,1,0,.11.25.25,0,0,1,0,.08l-.06.12-.09.12a.14.14,0,0,1-.1,0l-.08,0-.12-.07-.11-.12a.19.19,0,0,1,0-.11.29.29,0,0,1,0-.09A.58.58,0,0,1,29.11,56.3Zm.64,0a.52.52,0,0,1,.09-.12.15.15,0,0,1,.11,0l.07,0,.11.07.11.11a.19.19,0,0,1,0,.11.26.26,0,0,1,0,.08.55.55,0,0,1-.06.12.56.56,0,0,1-.09.12.14.14,0,0,1-.1,0l-.08,0-.12-.07a.53.53,0,0,1-.1-.11.2.2,0,0,1,0-.11.28.28,0,0,1,0-.09Z"/><path class="cls-3" d="M33.72,57.36a.58.58,0,0,1,0,.09,1.54,1.54,0,0,1-.06.18,2.24,2.24,0,0,1-.09.21c0,.05-.05.08-.09.08h-.29a1.21,1.21,0,0,0-.29,0l-.28.09-.25.12-.23.12-.29.15a1.94,1.94,0,0,1-.31.11,2.52,2.52,0,0,1-.39.07,4.63,4.63,0,0,1-.53,0l-.07,0-.07,0a.23.23,0,0,1-.05-.08.25.25,0,0,1,0-.1v-.21a.17.17,0,0,1,0-.09.16.16,0,0,1,.06-.06l.08,0h.1l.51,0,.38,0,.28-.06.23-.07.2-.07.22-.06h0l-.3-.1-.3-.1-.27-.07-.23,0-.18,0-.11.05-.07.05-.06,0a0,0,0,0,1,0,0,.22.22,0,0,1,0-.09.56.56,0,0,1,0-.09.19.19,0,0,1,0-.05.9.9,0,0,1,.24-.36.47.47,0,0,1,.31-.12l.25,0,.26.06.27.09.29.11a3.74,3.74,0,0,0,.55.18,2.48,2.48,0,0,0,.58.07S33.72,57.33,33.72,57.36Zm-1.81-1.41a.69.69,0,0,1,.11-.13.19.19,0,0,1,.12-.05l.09,0,.14.08.13.12a.2.2,0,0,1,0,.13.26.26,0,0,1,0,.09.76.76,0,0,1-.07.13.64.64,0,0,1-.11.14.18.18,0,0,1-.12.05l-.09,0L32,56.43a.64.64,0,0,1-.13-.13.22.22,0,0,1,0-.12.31.31,0,0,1,0-.1A.69.69,0,0,1,31.91,55.95Z"/><path class="cls-3" d="M34.91,58.63a.7.7,0,0,1-.54-.21,1.06,1.06,0,0,1-.22-.65c0-.15,0-.3,0-.47s0-.33,0-.49,0-.32,0-.47,0-.28-.06-.4a.22.22,0,0,1,0-.12l.12-.15.12-.12a.13.13,0,0,1,.08,0,.05.05,0,0,1,.05,0c0,.09,0,.18,0,.26s0,.17,0,.26l.08,1.44a1.09,1.09,0,0,0,0,.21.43.43,0,0,0,.07.15.32.32,0,0,0,.13.1.5.5,0,0,0,.2,0Z"/><path class="cls-3" d="M37.65,57.43a.26.26,0,0,1,0-.1.7.7,0,0,1,.1-.15l.09-.12.06,0s0,0,0,0l0,.12,0,.15c0,.05,0,.11,0,.17a1.46,1.46,0,0,1,0,.18,1.48,1.48,0,0,1,0,.34,1.18,1.18,0,0,1-.1.28.67.67,0,0,1-.15.2.27.27,0,0,1-.18.07l-.18,0-.2-.07-.19-.1-.16-.12a.66.66,0,0,1-.18.15,1.05,1.05,0,0,1-.22.1l-.24.05H36l-.14,0-.08-.06a.17.17,0,0,1,0-.07.19.19,0,0,1,0-.06h0a.5.5,0,0,1-.15.12l-.2.08-.23,0h-.24l-.07,0-.07,0a.21.21,0,0,1-.05-.07.25.25,0,0,1,0-.1v-.21a.17.17,0,0,1,0-.09.16.16,0,0,1,.06-.06l.08,0H35a1.53,1.53,0,0,0,.43-.06.76.76,0,0,0,.33-.19.66.66,0,0,0,.12-.16,1.67,1.67,0,0,0,.09-.22,0,0,0,0,1,0,0h.21s0,0,0,0a.43.43,0,0,1,0,.11l0,.14,0,.13a.3.3,0,0,0,0,.08.09.09,0,0,0,0,.08.18.18,0,0,0,.1,0l.16,0,.16,0,.14-.08a.42.42,0,0,0,.1-.1l.05-.09,0-.1,0-.11,0-.1a.05.05,0,0,1,0,0h.22a0,0,0,0,1,0,0,.65.65,0,0,1,0,.1l0,.11,0,.11,0,.09a.38.38,0,0,0,.09.12l.13.09.14.06.12,0h0l0,0,0-.05a.26.26,0,0,0,0-.09.39.39,0,0,0,0-.12l0-.11,0-.09A.13.13,0,0,1,37.65,57.43Z"/><path class="cls-3" d="M41.55,56.28a.65.65,0,0,1,.11-.13.18.18,0,0,1,.12-.05l.09,0,.14.08.13.12a.2.2,0,0,1,0,.13.26.26,0,0,1,0,.09l-.07.13a.64.64,0,0,1-.11.14.17.17,0,0,1-.12.05l-.09,0-.14-.08a.57.57,0,0,1-.13-.13.22.22,0,0,1,0-.12.3.3,0,0,1,0-.1A.63.63,0,0,1,41.55,56.28Z"/><path class="cls-3" d="M43.06,58.63h0a.62.62,0,0,1-.24,0,.49.49,0,0,1-.16-.1.6.6,0,0,1-.11-.13l-.09-.14-.08-.13L42.27,58a.34.34,0,0,0-.11-.08.38.38,0,0,0-.16,0,1,1,0,0,0-.29,0l-.24.09a.67.67,0,0,0-.16.11.16.16,0,0,0-.06.09s0,.07.12.1l.4.09.19,0a.33.33,0,0,1,.13.08.28.28,0,0,1,.07.12.65.65,0,0,1,0,.19.61.61,0,0,1,0,.14,1.47,1.47,0,0,1,0,.16l-.06.15-.07.11a2.09,2.09,0,0,1-.3.25,2,2,0,0,1-.35.19,2.14,2.14,0,0,1-.39.12,2.09,2.09,0,0,1-.43,0,1.24,1.24,0,0,1-.52-.1.9.9,0,0,1-.33-.25.91.91,0,0,1-.17-.34,1.49,1.49,0,0,1,0-.38,1.53,1.53,0,0,1,0-.28,2.27,2.27,0,0,1,.06-.26,2.2,2.2,0,0,1,.08-.23l.09-.2,0-.05,0,0,.06,0H40a0,0,0,0,1,0,0A.26.26,0,0,1,40,58l-.07.15a1.89,1.89,0,0,0-.07.2.93.93,0,0,0,0,.24.8.8,0,0,0,.06.32.64.64,0,0,0,.17.23.74.74,0,0,0,.27.14,1.27,1.27,0,0,0,.36,0l.27,0,.29-.08.28-.12a1.1,1.1,0,0,0,.22-.14,0,0,0,0,0,0,0l-.06,0-.12,0-.19,0-.17,0-.17-.07a.4.4,0,0,1-.13-.12.35.35,0,0,1-.05-.2.79.79,0,0,1,.05-.29,1.25,1.25,0,0,1,.15-.27,1.52,1.52,0,0,1,.22-.24,1.68,1.68,0,0,1,.26-.2,1.32,1.32,0,0,1,.28-.13.91.91,0,0,1,.28,0,.49.49,0,0,1,.22,0,.56.56,0,0,1,.16.11.83.83,0,0,1,.11.15l.09.14.08.12.08.09L43,58l.13,0Z"/><path class="cls-3" d="M43.06,58.63l-.07,0-.07,0a.21.21,0,0,1-.05-.07.25.25,0,0,1,0-.1v-.21a.17.17,0,0,1,0-.09.16.16,0,0,1,.06-.06L43,58h.45l.34,0,.3-.05.25-.08v0a.49.49,0,0,0,0-.05.71.71,0,0,0,0-.12.32.32,0,0,0,0-.1h0a.3.3,0,0,1-.13.13.41.41,0,0,1-.21.05l-.23,0a.55.55,0,0,1-.2-.1.47.47,0,0,1-.14-.18.67.67,0,0,1-.05-.28,1.16,1.16,0,0,1,.06-.39,1.22,1.22,0,0,1,.17-.32.89.89,0,0,1,.23-.22.47.47,0,0,1,.26-.08.48.48,0,0,1,.3.1.86.86,0,0,1,.23.27,1.51,1.51,0,0,1,.14.39,2,2,0,0,1,.05.45,1.68,1.68,0,0,1,0,.18c0,.07,0,.14,0,.21s0,.15-.05.23,0,.16-.07.24a.49.49,0,0,1-.07.14.27.27,0,0,1-.1.09,3.06,3.06,0,0,1-.59.18A3.87,3.87,0,0,1,43.06,58.63Zm.47-3.39a.66.66,0,0,1,.11-.13.19.19,0,0,1,.12-.05l.09,0,.14.08.13.12a.2.2,0,0,1,0,.13.26.26,0,0,1,0,.09.76.76,0,0,1-.07.13.63.63,0,0,1-.11.14.18.18,0,0,1-.12.05l-.09,0-.14-.08a.6.6,0,0,1-.13-.13.22.22,0,0,1,0-.12.3.3,0,0,1,0-.1A.62.62,0,0,1,43.53,55.24Zm.75,1.82a.45.45,0,0,0,0-.12.62.62,0,0,0-.07-.12.44.44,0,0,0-.1-.1.22.22,0,0,0-.12,0l-.1,0-.09.05-.06.07a.16.16,0,0,0,0,.07.17.17,0,0,0,0,.09l.1.08.14,0,.16,0,.08,0Z"/><path class="cls-3" d="M48.38,58.63a1.4,1.4,0,0,1-.29,0,.61.61,0,0,1-.24-.11.66.66,0,0,1-.18-.22,1.33,1.33,0,0,1-.12-.37h0l-.07.13-.09.11-.1.08a.2.2,0,0,1-.1,0,2.18,2.18,0,0,1-.46,0,1.1,1.1,0,0,1-.3-.11.45.45,0,0,1-.16-.15.31.31,0,0,1,0-.16.51.51,0,0,1,0-.17,1.33,1.33,0,0,1,.08-.19l.11-.18.12-.15.1-.08.16-.1.2-.11.22-.11.2-.1s0-.06,0-.09,0-.06,0-.08a.21.21,0,0,1,0-.12l.11-.14.09-.1a.12.12,0,0,1,.07,0,0,0,0,0,1,0,0c0,.24,0,.49.07.74s.06.5.1.75a.8.8,0,0,0,.05.2.37.37,0,0,0,.1.13.38.38,0,0,0,.15.07l.21,0Zm-.88-1.1c0-.09,0-.19,0-.29s0-.2,0-.29h0l-.06.07-.07.05-.16.08-.19.1-.17.11a.52.52,0,0,0-.12.11.56.56,0,0,0,.24.13,1.11,1.11,0,0,0,.28,0l.16,0A.46.46,0,0,0,47.49,57.53Z"/><path class="cls-3" d="M48.43,58a.51.51,0,0,0,.24-.06.41.41,0,0,0,.18-.19l.09-.19.1-.2.12-.18a1,1,0,0,1,.14-.15.63.63,0,0,1,.17-.11.48.48,0,0,1,.2,0,.41.41,0,0,1,.2,0,.56.56,0,0,1,.16.14.89.89,0,0,1,.12.2,1.63,1.63,0,0,1,.09.25l0,.19a.68.68,0,0,1,0,.17.82.82,0,0,1,0,.22,1,1,0,0,1-.08.21.72.72,0,0,1-.13.2.23.23,0,0,1-.16.08l-.18,0-.22-.07-.25-.12L49,58.21a.75.75,0,0,1-.27.32.64.64,0,0,1-.35.1l-.07,0-.07,0a.21.21,0,0,1-.05-.07.25.25,0,0,1,0-.1v-.21a.17.17,0,0,1,0-.09.16.16,0,0,1,.06-.06l.08,0Zm.81-.33.14.11.17.1.17.08.14,0h0v0a.18.18,0,0,0,0,0v-.05a.58.58,0,0,0,0-.14.55.55,0,0,0-.07-.14.45.45,0,0,0-.11-.1.27.27,0,0,0-.14,0,.22.22,0,0,0-.16.06A.45.45,0,0,0,49.23,57.65Z"/><path class="cls-3" d="M51.58,58.63a.7.7,0,0,1-.54-.21,1.06,1.06,0,0,1-.22-.65c0-.15,0-.3,0-.47s0-.33,0-.49,0-.32,0-.47,0-.28-.06-.4a.22.22,0,0,1,0-.12l.12-.15.12-.12a.13.13,0,0,1,.08,0,.05.05,0,0,1,.05,0c0,.09,0,.18,0,.26s0,.17,0,.26l.08,1.44a1.09,1.09,0,0,0,0,.21.43.43,0,0,0,.07.15.32.32,0,0,0,.13.1.5.5,0,0,0,.2,0Z"/><path class="cls-3" d="M53.14,58.63l-.28,0a.65.65,0,0,1-.21-.08.52.52,0,0,1-.16-.14.77.77,0,0,1-.11-.21h0l-.14.19a.74.74,0,0,1-.15.15.8.8,0,0,1-.23.09l-.26,0-.07,0-.07,0a.21.21,0,0,1-.05-.07.25.25,0,0,1,0-.1v-.21a.17.17,0,0,1,0-.09.16.16,0,0,1,.06-.06l.08,0h.1a.68.68,0,0,0,.2,0l.16-.07a.32.32,0,0,0,.1-.1l.09-.16a1.6,1.6,0,0,0,.07-.19,2.06,2.06,0,0,0,.05-.21l0,0,0,0,.08,0h.14c.05,0,.08,0,.08.06s0,0,0,.07l0,.12,0,.14,0,.14a.28.28,0,0,0,.17.24,1.08,1.08,0,0,0,.43.07Zm-1.22-2.4A.62.62,0,0,1,52,56.1a.18.18,0,0,1,.12-.05l.09,0,.14.08.13.12a.2.2,0,0,1,0,.13.26.26,0,0,1,0,.09.76.76,0,0,1-.07.13.63.63,0,0,1-.11.14.18.18,0,0,1-.12.05l-.09,0L52,56.7a.56.56,0,0,1-.13-.13.22.22,0,0,1,0-.12.3.3,0,0,1,0-.1A.62.62,0,0,1,51.92,56.22Z"/><path class="cls-3" d="M55.88,57.43a.26.26,0,0,1,0-.1.7.7,0,0,1,.1-.15l.09-.12.06,0s0,0,0,0l0,.12,0,.15c0,.05,0,.11,0,.17a1.46,1.46,0,0,1,0,.18,1.48,1.48,0,0,1,0,.34,1.18,1.18,0,0,1-.1.28.67.67,0,0,1-.15.2.27.27,0,0,1-.18.07l-.18,0-.2-.07-.19-.1-.16-.12a.66.66,0,0,1-.18.15,1.05,1.05,0,0,1-.22.1l-.24.05h-.23l-.14,0L54,58.49a.17.17,0,0,1,0-.07.19.19,0,0,1,0-.06h0a.5.5,0,0,1-.15.12l-.2.08-.23,0h-.24l-.07,0-.07,0a.21.21,0,0,1-.05-.07.25.25,0,0,1,0-.1v-.21a.17.17,0,0,1,0-.09A.16.16,0,0,1,53,58l.08,0h.1a1.53,1.53,0,0,0,.43-.06.76.76,0,0,0,.33-.19.66.66,0,0,0,.12-.16,1.67,1.67,0,0,0,.09-.22,0,0,0,0,1,0,0h.21s0,0,0,0a.43.43,0,0,1,0,.11l0,.14,0,.13a.3.3,0,0,0,0,.08.09.09,0,0,0,0,.08.18.18,0,0,0,.1,0l.16,0,.16,0,.14-.08a.42.42,0,0,0,.1-.1l.05-.09,0-.1,0-.11,0-.1a.05.05,0,0,1,0,0h.22a0,0,0,0,1,0,0,.65.65,0,0,1,0,.1l0,.11,0,.11,0,.09a.38.38,0,0,0,.09.12l.13.09.14.06.12,0h0l0,0,0-.05a.26.26,0,0,0,0-.09.39.39,0,0,0,0-.12l0-.11,0-.09A.13.13,0,0,1,55.88,57.43Z"/><path class="cls-3" d="M57.61,58.63a.7.7,0,0,1-.54-.21,1.06,1.06,0,0,1-.22-.65c0-.15,0-.3,0-.47s0-.33,0-.49,0-.32,0-.47,0-.28-.06-.4a.22.22,0,0,1,0-.12l.12-.15.12-.12a.13.13,0,0,1,.08,0,.05.05,0,0,1,.05,0c0,.09,0,.18,0,.26s0,.17,0,.26l.08,1.44a1.09,1.09,0,0,0,0,.21.43.43,0,0,0,.07.15.32.32,0,0,0,.13.1.5.5,0,0,0,.2,0Z"/><path class="cls-3" d="M59.16,58.63l-.28,0a.65.65,0,0,1-.21-.08.52.52,0,0,1-.16-.14.77.77,0,0,1-.11-.21h0l-.14.19a.74.74,0,0,1-.15.15.8.8,0,0,1-.23.09l-.26,0-.07,0-.07,0a.21.21,0,0,1-.05-.07.25.25,0,0,1,0-.1v-.21a.17.17,0,0,1,0-.09.16.16,0,0,1,.06-.06l.08,0h.1a.68.68,0,0,0,.2,0l.16-.07a.32.32,0,0,0,.1-.1l.09-.16a1.6,1.6,0,0,0,.07-.19,2.06,2.06,0,0,0,.05-.21l0,0,0,0,.08,0h.14c.05,0,.08,0,.08.06s0,0,0,.07l0,.12,0,.14,0,.14a.28.28,0,0,0,.17.24,1.08,1.08,0,0,0,.43.07Zm-1.22-2.4A.62.62,0,0,1,58,56.1a.18.18,0,0,1,.12-.05l.09,0,.14.08.13.12a.2.2,0,0,1,0,.13.26.26,0,0,1,0,.09.76.76,0,0,1-.07.13.63.63,0,0,1-.11.14.18.18,0,0,1-.12.05l-.09,0L58,56.7a.56.56,0,0,1-.13-.13.22.22,0,0,1,0-.12.3.3,0,0,1,0-.1A.62.62,0,0,1,57.94,56.22Z"/><path class="cls-3" d="M61.9,57.43a.26.26,0,0,1,0-.1.7.7,0,0,1,.1-.15l.09-.12.06,0s0,0,0,0l0,.12,0,.15c0,.05,0,.11,0,.17a1.46,1.46,0,0,1,0,.18,1.48,1.48,0,0,1,0,.34,1.18,1.18,0,0,1-.1.28.67.67,0,0,1-.15.2.27.27,0,0,1-.18.07l-.18,0-.2-.07-.19-.1-.16-.12a.66.66,0,0,1-.18.15,1.05,1.05,0,0,1-.22.1l-.24.05h-.23l-.14,0L60,58.49a.17.17,0,0,1,0-.07.19.19,0,0,1,0-.06h0a.5.5,0,0,1-.15.12l-.2.08-.23,0h-.24l-.07,0-.07,0a.21.21,0,0,1-.05-.07.25.25,0,0,1,0-.1v-.21a.17.17,0,0,1,0-.09A.16.16,0,0,1,59,58l.08,0h.1a1.53,1.53,0,0,0,.43-.06.76.76,0,0,0,.33-.19.66.66,0,0,0,.12-.16,1.67,1.67,0,0,0,.09-.22,0,0,0,0,1,0,0h.21s0,0,0,0a.43.43,0,0,1,0,.11l0,.14,0,.13a.3.3,0,0,0,0,.08.09.09,0,0,0,0,.08.18.18,0,0,0,.1,0l.16,0,.16,0,.14-.08a.42.42,0,0,0,.1-.1l.05-.09,0-.1,0-.11,0-.1a.05.05,0,0,1,0,0h.22a0,0,0,0,1,0,0,.65.65,0,0,1,0,.1l0,.11,0,.11,0,.09a.38.38,0,0,0,.09.12l.13.09.14.06.12,0h0l0,0,0-.05a.26.26,0,0,0,0-.09.39.39,0,0,0,0-.12l0-.11,0-.09A.13.13,0,0,1,61.9,57.43Zm-1.48-1.07a.47.47,0,0,1,.09-.12.15.15,0,0,1,.1,0l.07,0,.12.07.11.11a.19.19,0,0,1,0,.11.25.25,0,0,1,0,.08l-.06.11-.09.12a.14.14,0,0,1-.1,0l-.08,0-.12-.07-.11-.11a.18.18,0,0,1,0-.11.29.29,0,0,1,0-.09A.49.49,0,0,1,60.42,56.36Zm.25-.67a.49.49,0,0,1,.09-.12.16.16,0,0,1,.11,0l.07,0,.11.07a.56.56,0,0,1,.11.11.19.19,0,0,1,0,.11.25.25,0,0,1,0,.08.52.52,0,0,1-.06.11l-.09.12a.14.14,0,0,1-.1,0l-.07,0-.12-.07a.58.58,0,0,1-.11-.11.19.19,0,0,1,0-.11.29.29,0,0,1,0-.09A.52.52,0,0,1,60.67,55.69Zm.39.64a.46.46,0,0,1,.09-.12.16.16,0,0,1,.11,0l.07,0,.11.07.11.11a.18.18,0,0,1,0,.11.25.25,0,0,1,0,.08.63.63,0,0,1-.06.12.56.56,0,0,1-.09.12.15.15,0,0,1-.1,0l-.08,0-.12-.07a.49.49,0,0,1-.1-.11.2.2,0,0,1,0-.11.27.27,0,0,1,0-.09Z"/></g></svg>